<svg width="69" height="71" viewBox="0 0 69 71" fill="none" xmlns="http://www.w3.org/2000/svg">
<path fill-rule="evenodd" clip-rule="evenodd" d="M64.3666 22.9321L62.7175 22.9515L63.0701 4.78519C63.1208 2.17424 61.0322 0.0635959 58.4272 0.0942102L27.1877 0.461335C24.5837 0.491937 22.4122 2.65365 22.3615 5.26359L22.1085 18.2973C15.7381 21.9428 9.16659 25.7501 9.15241 25.7593C5.5961 27.2566 0.335848 32.0149 0.12055 43.1074C0.101323 44.098 0.148575 45.0117 0.222432 45.894C0.246411 46.1523 0.273585 46.4006 0.30374 46.6498C0.38215 47.2975 0.484106 47.9168 0.608665 48.5048C0.626946 48.5903 0.643377 48.6772 0.659744 48.7639L0.659751 48.7639C0.683593 48.8902 0.707301 49.0157 0.736406 49.1348C0.906176 49.8145 1.10576 50.4517 1.33195 51.0575C1.43379 51.3255 1.544 51.5719 1.65572 51.8216L1.65576 51.8217L1.65578 51.8217L1.69628 51.9123C1.8305 52.2085 1.96582 52.4996 2.11151 52.7715C2.28011 53.0994 2.44895 53.4151 2.63509 53.7147C2.6578 53.7501 2.68158 53.784 2.70546 53.818L2.70553 53.8181C2.72857 53.8509 2.75172 53.8839 2.7741 53.9186C7.19615 60.7704 15.6007 60.7027 15.6007 60.7027L21.2868 60.6359L21.1821 66.0292C21.1315 68.6371 23.22 70.7478 25.8241 70.7172L57.0626 70.3501C59.6676 70.3195 61.8391 68.1577 61.8897 65.5508L62.0174 58.9723L62.7394 58.9638L62.7395 58.9598L63.6605 58.949C65.7315 58.9247 67.4432 57.2255 67.4795 55.149L67.4914 54.7399C67.5277 52.6664 65.8851 51.0116 63.8171 51.0359L62.8931 51.0468L56.834 51.118L55.9 51.129C53.8319 51.1533 52.1293 52.8514 52.0891 54.9239L52.081 55.34C52.0409 57.4075 53.6822 59.0733 55.7492 59.049L58.7233 59.014L58.674 61.5548L24.5534 61.9558L25.2149 27.8741C26.9501 26.7641 28.5575 25.6967 29.4762 24.9831C30.2928 24.3498 31.1019 23.7388 31.8843 23.148L31.8845 23.1479L31.8845 23.1478C35.561 20.3715 38.6494 18.0393 39.1761 15.9164C40.0078 12.5755 37.5113 9.79802 33.0414 12.1552C31.6333 12.8975 28.7414 14.5223 25.4376 16.4006L25.6007 8.00028L59.7211 7.60431L59.4225 22.9882L57.3795 23.0122L57.3794 23.0162L56.4504 23.0272C54.3814 23.0515 52.6698 24.7497 52.6294 26.8282L52.6215 27.2353C52.5812 29.3128 54.2277 30.9675 56.2918 30.9433L57.2208 30.9324L63.2799 30.8611L64.2109 30.8502C66.2769 30.8259 67.9845 29.1278 68.0248 27.0543L68.0329 26.6362C68.077 24.5716 66.4356 22.9078 64.3666 22.9321ZM41.6809 63.3195C42.9929 63.304 44.0302 64.3534 44.0047 65.666C43.9791 66.9816 42.8994 68.052 41.5884 68.0675C40.2814 68.083 39.2461 67.0346 39.2716 65.722C39.2991 64.4134 40.3789 63.3349 41.6809 63.3195ZM37.6186 4.96266L47.6162 4.81319C47.9302 4.8085 48.1921 4.54699 48.1992 4.23094C48.2065 3.90784 47.9563 3.656 47.6422 3.66069L37.6446 3.81016C37.3306 3.81486 37.0648 4.07542 37.0575 4.39751C37.0503 4.71458 37.3046 4.96736 37.6186 4.96266ZM64.0187 41.4919L63.0998 41.502L56.1463 41.5786C54.0937 41.6012 52.3923 43.3237 52.3534 45.4216L52.3457 45.8378C52.3067 47.9377 53.9409 49.6184 55.9975 49.5958L56.9214 49.5856L62.947 49.5192L63.8679 49.5091C65.9275 49.4864 67.6198 47.7691 67.6638 45.6691L67.6715 45.253C67.7095 43.1551 66.0803 41.4692 64.0187 41.4919ZM57.2262 32.2216L64.1696 32.1452C66.2262 32.1226 67.8644 33.8033 67.8215 35.9002L67.8178 36.3173C67.7789 38.4141 66.0774 40.1396 64.0209 40.1622L63.102 40.1723L56.1515 40.2487C54.096 40.2714 52.4627 38.5896 52.5018 36.4857L52.5094 36.0736C52.5484 33.9717 54.2447 32.2544 56.2973 32.2318L57.2262 32.2216Z" fill="#FFC59E"/>
</svg>
